<svg xmlns="http://www.w3.org/2000/svg" width="1333.333" height="1333.333" viewBox="0 0 1000 1000"><path d="M476 .6c-87.8 5.7-157.2 26.5-229.5 68.7-54.7 32-104.6 76.5-145.2 129.7-42.7 56-75.6 128.3-89.8 198-7 34.3-9.9 63.6-9.9 101.5 0 30.3.8 43.8 4.5 70.5C20.6 674.3 70.3 774.2 146 850c41.3 41.4 82.9 71.2 134.5 96.5 56.2 27.5 114.2 43.8 175 49 21.9 1.9 67 1.9 88.5 0 103.2-8.9 203.1-51.1 281-118.6 16-13.9 42-40 55.1-55.4 59.3-69.5 99.6-158.2 113-248.4 6.6-44.5 6.6-105.8 0-148.6-7.8-50.8-22.8-98.5-45.6-145-25.3-51.5-55-93-96.5-134.5C790 84 713.6 40 628.7 16.9c-25.8-7-51-11.5-81.2-14.5C533.2 1 487.6-.2 476 .6M527 41c63.5 3.9 119.3 18.7 175.6 46.6 46.9 23.1 83 49.2 120.9 86.9 20.9 20.8 33.3 35.2 47.6 55 48.5 66.9 76.8 141.9 85.4 226 1.7 16.6 2 65.5.5 82.5-7.6 84.1-36.6 161.7-86.5 231-24.6 34.3-66.2 75.9-100.5 100.5-69.3 49.9-146.8 78.9-231 86.5-17 1.5-65.9 1.2-82.5-.5-84.1-8.6-159.1-36.9-226-85.4-37.1-26.8-75.2-65.1-103.5-104-26-35.7-50.6-84.7-63.8-126.6-13.3-42.3-19-73.8-21.4-118.7-4.4-83.2 15-168 55.2-241.4 22.8-41.4 46.7-73 81.2-107 33-32.6 61.9-54.2 102.2-76.4 74.9-41 161-60.2 246.6-55"/><path d="M499 190.5c-7.5 2.2-13.5 5.3-18.8 10-3.9 3.4-6.4 7.9-19.8 35-8.4 17-41.4 86.3-73.4 154C311 550.1 191 803 189.9 805.2c-.9 1.7 1.6 1.8 47.3 1.8h48.3l20.9-46.3c34-75.2 89.8-197.1 90.5-197.9s-9.9-8.2 182.5 128.4c108.8 77.3 155.8 110.1 162.3 113.4 12.1 6.1 19.6 7.3 31.3 5 16.4-3.1 28.2-11.5 34.3-24.3 2.8-5.9 3.2-7.8 3.1-14.9v-8l-18.9-40.5C752.7 638.5 626 370.8 566.1 245.7c-9.9-20.8-19.5-39.6-21.2-41.8-3.9-5-10.6-9.6-17.3-12-7.5-2.6-21.7-3.3-28.6-1.4m17.8 131.8c2.4 5 20 43.2 39.2 84.7 86.7 187.9 119.9 260.4 119.7 260.7-.4.3-42.2-27.7-71.2-47.7-57-39.2-172.4-119.3-174.8-121.2l-2.8-2.3 8.9-20c12-27 39.1-85.8 55.2-120 7.2-15.4 14.8-31.5 16.8-35.8 1.9-4.2 3.8-7.7 4.1-7.7s2.5 4.2 4.9 9.3"/></svg>